<?xml version="1.0" standalone="no"?>
<!DOCTYPE svg PUBLIC "-//W3C//DTD SVG 20010904//EN"
 "http://www.w3.org/TR/2001/REC-SVG-20010904/DTD/svg10.dtd">
<svg version="1.0" xmlns="http://www.w3.org/2000/svg"
 width="500.000000pt" height="500.000000pt" viewBox="0 0 500.000000 500.000000"
 preserveAspectRatio="xMidYMid meet">
<metadata>
Created by potrace 1.14, written by Peter Selinger 2001-2017
</metadata>
<g transform="translate(0.000000,500.000000) scale(0.100000,-0.100000)"
fill="#000000" stroke="none">
<path d="M2329 4976 c-2 -2 -38 -6 -79 -10 -63 -5 -219 -30 -321 -51 -14 -2
-73 -19 -130 -36 -299 -88 -573 -230 -829 -428 -105 -81 -314 -288 -400 -396
-271 -341 -455 -759 -514 -1170 -4 -22 -9 -58 -14 -80 -4 -22 -7 -159 -7 -305
0 -315 14 -425 87 -679 161 -563 530 -1064 1018 -1383 342 -224 677 -343 1110
-395 121 -15 506 -7 580 12 8 2 40 7 70 10 109 13 262 51 420 106 501 175 945
520 1234 959 30 47 60 90 66 97 5 6 48 90 94 185 92 189 173 412 201 558 6 30
34 206 41 250 10 71 13 460 4 515 -4 28 -10 77 -14 110 -34 325 -178 708 -383
1019 -143 215 -263 349 -508 565 -16 15 -68 54 -115 87 -324 229 -680 376
-1055 433 -38 6 -86 13 -105 16 -41 7 -445 17 -451 11z"/>
</g>
</svg>
